<?xml version="1.0" encoding="UTF-8"?>
<svg id="Layer_1" data-name="Layer 1" xmlns="http://www.w3.org/2000/svg" viewBox="0 0 156.1007 142.1908">
  <defs>
    <style>
      .cls-1 {
        fill: #5a0005;
      }
          @media (prefers-color-scheme: dark) { .cls-1 { fill: #F6EFE0; } }
    </style>
  </defs>
  <path class="cls-1" d="M110.5997,142.1203l.0835-6.8179-2.4372,5.2551-1.2003.0493-2.3782-5.0438-.0483,6.5773-1.963.0076.0005-9.5911,2.2227-.0194c.2864.3232.7601.994.9365,1.3744l1.7484,3.771,2.5089-5.0807,2.4029-.0603-.0004,9.5994-1.876-.021Z"/>
  <path class="cls-1" d="M88.2463,135.7403c.8963,2.9467-.8748,6.1206-3.9363,6.3505l-4.1043.0456-.011-9.5841,3.4959-.0229c2.0618-.0135,3.9141,1.1014,4.5557,3.2109ZM85.262,139.8412c.9122-.63,1.3598-1.6283,1.2742-2.5997-.076-.8619-.3665-2.0703-1.3349-2.5085-.8307-.3759-1.84-.3117-2.9721-.4045l.02,5.9733c1.2126-.0773,2.2358.076,3.0128-.4606Z"/>
  <path class="cls-1" d="M98.2588,138.2251l-3.3257-.0088c-.0716-.0002-.4845-.1875-.4808-.1925.0036-.0048-.1507.225-.1768.2642l-.0349,1.935,4.6881-.0291.0163,1.9543-6.758-.0007-.0028-9.5974,6.5404-.0042-.0281,1.83-4.5352.0339c.1263.877.1581,1.3339.1119,2.06l4.0192-.0025-.0336,1.7578Z"/>
  <path class="cls-1" d="M51.3969,142.1908l-.8492-2.3741-3.5643.024-.8974,2.3001-2.0595-.0021,3.8884-9.5627,1.939-.0111,2.2846,6.0124,1.3299,3.4999-2.0715.1136ZM50.0318,138.2074l-1.2036-3.3087-1.2302,3.3589,2.4339-.0502Z"/>
  <path class="cls-1" d="M73.9707,139.8116l-3.5546.0389-.8601,2.1867-2.0942.0931,3.8408-9.5559,1.922-.0077,3.656,9.5346-2.1429.0629-.767-2.3525ZM73.3908,138.2066l-1.2077-3.278-1.2472,3.3685,2.4549-.0905Z"/>
  <path class="cls-1" d="M58.0553,137.5223c.1619,1.4523.9955,2.5057,2.3016,2.7466,1.1888.2192,2.3209-.469,2.9779-1.7245l1.3661,1.1179c-.8886,1.6148-2.5122,2.4722-4.0981,2.4705-1.8599-.002-3.5549-1.1081-4.185-2.7898-.717-1.9135-.5661-3.8767.7674-5.358,1.0333-1.1479,2.3182-1.7464,3.8874-1.6185,1.3098.1068,2.6191.89,3.4022,2.2501l-1.2528,1.2769c-.8526-1.3081-1.9138-1.9378-3.3383-1.5185-1.1525.3392-1.9915,1.6847-1.8284,3.1473Z"/>
  <polygon class="cls-1" points="124.0754 132.5933 120.9128 137.9814 120.9085 142.1468 119.0088 142.1366 119.0219 138.242 115.8349 132.5911 117.9729 132.5217 119.9501 136.25 121.8447 132.5354 124.0754 132.5933"/>
  <g>
    <path class="cls-1" d="M90.8837,98.0478c.4058.5265.1933,1.6269-.2068,2.1101-.4143.5004-1.1736.8326-2.0383.7856-.5249-.0285-1.066-.8079-1.1745-1.3286-.1213-.5822.2458-1.3276.7921-1.7455.7516-.5748,1.8975-.769,2.6275.1783Z"/>
    <path class="cls-1" d="M117.1072,96.4158c.678,1.258-.8601,2.9919-2.1658,2.6886-1.1413-.2651-1.5408-1.8537-.871-2.6658.7175-.8698,2.4019-1.2009,3.0368-.0228Z"/>
    <g>
      <path class="cls-1" d="M61.3906,106.7536c-.4781-.6354-1.1158-1.4955-.6853-2.2242.5841-.9888,2.4076-1.2564,3.1906-.4958.633.6149.6861,1.6266.3905,2.391l3.3551.5434c.8093.1311,2.0054,1.3335,1.6218,2.1826l-2.2576,4.9982-1.4675,3.5085c-.0953.2278.1091.8781.2853.9822.2107.1245.7066.058.9909-.129,2.6774-1.7606,4.6151-4.2446,6.3703-6.942,2.6479-4.0694,2.407-8.1248,4.6458-7.3053.7159.2621,1.1111,1.1795.7293,2.0087l-2.1273,4.6195-1.7897,4.5811c-.2132.5457-.2205,1.5601.0146,2.1487.1989.498,1.2884.3099,1.7105-.0276,4.6108-3.6869,6.7938-7.3446,8.6876-12.8907.2767-.8103,1.0291-1.3106,1.6924-1.0889.8072.2698,1.3758,1.1233.9988,2.0084l-2.4774,5.8175-1.4322,4.3308c-.1285.3886.2216,1.2305.5311,1.456,1.204-.2642,2.1148-1.1082,2.9748-1.9419,1.9607-1.9009,3.4822-3.9354,4.4238-6.5034l1.6986-4.6327c.2927-.7984.8454-1.8006,1.8027-1.8585.3719-.0225.9839.4104,1.129.7259.1662.3616.1863,1.2883.0266,1.6749l-2.5639,6.207c-.9346,2.2626-.9608,5.9847.7019,5.291,2.4919-1.0396,4.7263-5.0456,6.3808-7.6597-.9641-3.2219.6371-7.5183,3.0543-6.8757,2.5255.6714,1.301,4.1885-.0154,6.8941,1.354.231,2.5284-.4053,3.5841-1.1901,4.2587-3.1657,3.6208-6.6312,5.6617-6.2365.7118.1377,1.3429.9391.9701,1.7496l-1.3726,2.9841c-1.186,2.5784-2.4325,4.984-3.2147,7.7318-.1454.5108.2968,1.7076.8652,1.4614,1.957-.8474,3.3354-2.4425,4.7004-4.0058,1.5121-1.7319,2.8262-3.5003,3.7799-5.5953l2.1142-4.6442c.3051-.6701,1.3459-.8202,1.8111-.6066.8697.3992.8623,1.1365.4863,2.0634,1.6648-1.4494,3.4862-2.5133,5.6616-2.6783,1.4319-.1086,2.5697.6359,2.7837,2.1225.2072,1.4394-.2905,2.9685-.9021,4.3549l-2.608,6.3819.1204.554c.1318.6061,1.5504-.0674,2.8893-1.311,1.1114-1.0323,2.4888-2.0045,3.0314-3.435,1.2821-3.3805,3.2515-6.4182,6.1712-8.4843,2.6526-1.8771,6.4938-2.1842,8.7507-.159l.2689-.973c.0989-.3579,1.4439-.5982,2.1011.087.2137.2228.4113.9936.3026,1.2973l-5.6451,15.7814,8.7593-1.8118c.3822-.0791.9754.6848,1.0383,1.0573.0698.4138-.2283,1.4384-.704,1.5481l-9.7806,2.2553c-.4325.3011-.8322,1.141-1.0306,1.7436-1.154,3.5051-2.8141,6.7978-5.4478,9.3299-2.8181,2.7094-7.1087,3.1539-9.3002.563-1.7329-2.0487-1.6401-4.9029-.0594-7.0889,1.5856-2.1927,3.9148-3.8979,6.5678-4.712l7.041-2.1604,1.8035-5.3309c-1.9125,1.7653-3.8784,3.0884-6.2194,3.7555-2.0237.5766-4.0063-.2175-4.7386-2.2729-1.9603,2.2146-6.4316,4.2619-8.0271,2.5663-.5762-.6123-.9284-1.5892-.7183-2.5528.3816-1.7502.9192-3.3506,1.6449-4.9854l1.9485-4.3892c.0889-.2003-.0261-.8997-.2344-.9584-.6768-.1908-2.4379.6275-3.1782,1.2745-4.3846,3.8318-5.5674,7.0477-7.6534,12.1937-.316.7794-1.1961,1.1214-1.7818.8642-.8415-.3696-1.0187-1.1171-.9477-2.1455-2.3229,2.1719-5.4241,4.2169-7.6463,2.2415-.7709-.6853-1.1524-1.8767-.8487-2.988l.8887-3.2527c-1.1558.6643-2.7054,1.1063-3.9791.6712-.5816-.1987-1.0273-.255-1.3901.2189l-3.2342,4.2244c-1.2575,1.6425-3.0064,3.1156-5.0944,3.3308-1.9202.1979-3.4386-1.1815-3.2871-3.1236l-3.7281,2.9475c-1.144.9045-2.7351,1.2059-4.1879.922-1.3668-.2671-1.8919-1.5242-1.7265-2.9769l-1.5528,1.3537c-1.3953,1.2163-2.8599,2.3843-4.7433,2.6697-.9819.1488-1.9796-.1881-2.5306-.8664-.5931-.7301-.5966-1.6368-.3511-2.6582-1.9016,2.7342-6.3947,5.3387-8.4801,3.3951-.77-.7176-1.1691-1.8489-.7874-2.8747l.8214-2.2079,2.8459-6.0173-2.6359-.8-3.4692,7.0401c-.8983,1.8229-4.1243,6.4964-5.7109,6.4171-.3175-.0159-.9595-.667-.8973-1.0034l4.2638-6.2188,2.1474-4.1251,1.4296-4.1069ZM147.3409,103.3149c.2047-.9603-.1063-2.3195-1.1375-2.5034-5.5111-.9826-11.0113,9.2176-8.9788,11.3226,2.0891,2.1637,9.2884-4.9359,10.1163-8.8193ZM140.5009,123.484l1.9349-4.1804-6.1948,2.3172c-3.3421,1.2501-6.3309,4.6503-4.3979,6.9376,2.2437,2.6548,6.8001-1.0606,8.6579-5.0743Z"/>
      <path class="cls-1" d="M38.1438,106.6789c.6439-.2606,1.6443.5297,1.6602,1.2444-1.8441,5.0657-3.6666,10.0587-5.8682,14.9786-.907,2.0269-1.7876,3.8802-3.3247,5.6581,1.9047.1925,3.9963-.0737,6.1625-.3575,4.6084-.6037,8.7583-2.6129,11.7243-6.1824,3.246-3.9065,5.0631-8.9125,3.9916-13.8775-.7357-3.409-3.4958-5.3905-6.8391-5.6308-3.0814-.2215-5.9311.7441-8.7168,2.0437-3.2053,1.4954-6.0175,3.4258-8.111,6.3043-1.3321,1.8316-2.3767,4.5799-1.2916,5.5577.522.4704,1.6543-.4904,2.6275.3583.2966.2587.6848,1.1342.4283,1.4409-1.0956,1.31-2.8425,1.4648-4.1662.8123-2.6626-1.3124-2.6362-4.8966-1.3256-7.5442,2.4339-4.9168,7.6615-8.3582,12.7305-10.4048,3.9936-1.6124,9.2536-2.0246,12.8672.1524,1.9921,1.2002,3.5753,3.1792,4.3182,5.4358,1.9161,5.8199-.767,12.3884-4.5294,17.1108-2.033,2.5518-4.5298,4.6079-7.6096,5.7043-2.44.8686-4.8297,1.4268-7.3997,1.5919l-7.1286.4581-2.0459,1.2244c-2.1078,1.2614-4.7297,2.0745-5.6734.3137-.2222-.4147-.1027-1.4349.2746-1.7247l5.3523-1.7401c2.1351-.6942,5.2952-7.6834,6.441-10.7473l3.6805-9.8413c.3479-.9302.634-1.8789,1.7711-2.3391Z"/>
    </g>
    <g>
      <path class="cls-1" d="M10.3229,17.7594c-2.2479,5.166-2.8518,10.3631-1.0381,15.7615.8234,2.4507,2.0011,4.7976,3.9126,6.5483,2.7171,2.4887,5.6879,4.2195,9.3592,4.5547,5.1026.466,9.6135-1.4607,12.9875-5.1556,4.5325-4.9636,6.2947-12.6243,1.5417-17.6026-2.029-2.1252-4.6915-3.1212-7.6292-2.6506-2.6185.4195-4.8621,1.6853-6.3774,3.8908-1.7557,2.5554-2.4595,5.7869-1.1425,8.6301.75,1.6191,2.2545,2.3604,3.933,2.2699,4.2917-.2313,3.4573-4.527,4.4682-5.1597.5946-.3721,1.4555.1123,1.7902.5117.489.5835.6033,1.3305.4426,2.1328-.7153,3.5707-3.8788,5.8479-7.4165,5.6804-3.5012-.1658-6.2899-2.8166-6.8135-6.4181-.5502-3.7848.6974-7.4231,3.1946-10.2915,3.4832-4.001,8.9471-5.6168,13.8908-3.4515,2.792,1.2229,5.1477,3.8178,6.1918,6.6263,2.9598,7.961-.8731,16.9968-8.1981,21.1554-2.5337,5.4819-5.7757,10.3234-9.823,14.7955l-3.0306,3.3487c5.9348-.3277,13.0641-.9733,15.8953,4.4785,2.0176,3.8851-.0377,9.555-3.303,12.6557-3.2632,3.0987-7.8425,5.5727-12.0828,6.3479.7251.5281,1.3894,1.09,1.782,1.8066l2.9362,5.3597c.6235,1.138,1.4992,2.1331,2.3907,3.0346,2.5389,2.5674,4.8507,1.3983,5.2607,2.7575.0954.3163-.1303,1.06-.4027,1.2649-.8955.6737-1.9302.7321-2.9746.4517-5.821-1.5631-7.2116-8.7503-10.6018-12.3152-2.1316-2.2415-5.8583-.5483-6.2286-2.6595-.1807-1.0304.4735-1.8661,1.5745-1.9681,1.2898-.1194,2.7491.1143,4.0862-.0884,4.3386-.6578,8.3126-2.5307,11.5877-5.3203,2.1949-1.8696,3.6152-4.1822,3.9196-7.0363.2579-2.4179-.9935-4.4353-3.2468-5.3479-4.2149-1.707-8.5762-.919-13.0248-.0429l-1.036,2.5349-7.1137,16.6356-7.5996,17.8797c-.1789.4208-1.2733.4346-1.6624.3034-.5083-.1714-.9142-.9872-.6273-1.6752l5.5955-13.4206,8.9344-21.2088c-2.9423.9455-5.8015,2.4147-8.4187,4.52-2.5324,2.0371-2.7313,5.5998-4.7905,4.3201-1.0322-.6415-1.1234-1.5417-.3786-2.5246l1.3139-1.7339c4.3381-5.7252,12.5322-7.0795,14.0937-8.5797,1.023-.9828,1.8147-2.2706,2.7815-3.3315l3.6563-4.0123c2.5855-2.8372,4.5836-6.098,6.2378-9.3038-4.0877,1.1682-8.2941,1.047-12.1159-.6443C5.2456,40.8701,3.154,27.7948,7.8575,16.3963c2.8614-6.9343,8.3248-11.7404,15.2421-14.4707,7.1776-2.8331,16.5967-2.8112,22.8639,1.8985,4.2501,3.1939,7.0075,7.6239,8.4714,12.6814,1.6817,5.8097,4.236,12.1808,10.1475,14.2429,2.372.8274,4.8391.7087,7.3082.7938l4.8005.1655c6.5049.2242,11.3257,2.2628,16.665,5.8518l5.1063,3.4324c2.5937,1.7435,5.1095,3.534,8.1053,4.5031,2.6601.8605,5.2254,1.4242,7.97,1.8647,8.7772,1.4084,18.6361,3.7239,24.6376,10.4324,2.8668,3.2045,4.0403,7.0816,3.9159,11.2758-.1353,4.5616-3.1728,8.1869-7.6966,8.9862l-2.6471.4677c-3.5837,7.8137-11.6884,11.8295-20.1226,9.1473-2.5788-.8201-4.6768-2.4277-6.5352-4.3675-3.1143-3.2507-4.5-7.5341-4.3314-12.0628.3328-8.94,8.5942-16.2462,17.7819-15.1523,3.4071.4057,6.4959,1.5801,8.932,3.9581,3.1969,3.1207,5.842,7.7279,5.4947,12.1298l-.2548,3.2285c4.2591.3475,6.9246-3.735,6.7705-7.9764-.2248-6.1903-5.3552-10.852-10.9229-13.2574-3.4503-1.4906-6.9575-2.4078-10.6636-3.0729l-9.4301-1.6922c-3.7355-.6703-7.049-2.1262-10.1386-4.2628l-5.1738-3.578c-3.5652-2.4655-7.167-4.5384-11.3056-5.9205-2.297-.767-4.5706-.999-7.0293-1.0567l-9.075-.2131c.2399.5516.5276,1.3777.5351,2.0426l.1004,8.8901.2169,3.2593.2443,2.844c.1418,1.651.3952,3.4769.023,5.1041-1.8616,2.6365-4.7399,4.5764-7.8871,5.2034-1.8444.3674-3.4097-.8444-4.63-2.0246-1.6453-1.5914-3.3177-2.824-5.2944-3.9265-.6635-.3701-1.3867-.6441-2.0339.1836-1.1116,1.4215-2.1967,3.0362-3.0618,4.7026-.4028.7758-.5269,1.7186-1.1339,2.3738-.3381.3649-1.2153.4458-1.6098.2893-.4178-.1657-.8991-1.1086-.6668-1.6839,1.034-2.5601,2.4725-4.8175,4.0665-7.057,1.2151-1.7073,3.1718-2.641,5.2029-1.6734,2.0132.9591,3.6462,2.5306,5.3887,3.9253l2.2215,1.7779c1.3431,1.075,4.5246-1.0786,6.3018-2.5618.313-.2613.5556-1.1418.5207-1.5214l-.7466-8.1107-.0918-2.8903.0177-6.1097c.0031-1.0699-.6028-2.7937-1.4232-3.451l-4.7594-3.8132c-2.6543-2.1266-4.1967-5.2841-5.2578-8.4763l-1.1464-3.4488c-.7664-2.3056-1.3148-4.6873-2.5988-6.7608-3.842-6.2042-9.7454-8.8276-16.9563-8.5886-9.6426.3196-18.1032,6.0202-21.9622,14.8888ZM115.1687,68.2215c3.0864.5071,5.8327.142,8.368-1.4141l4.8092-2.9517c-3.729-4.6473-9.9483-6.1839-15.3899-4.1063-2.2561.8614-3.9517,2.513-5.5134,4.2431l4.4086,2.6524c1.0275.6182,2.0312,1.3652,3.3173,1.5765ZM116.1801,85.3927l-.1171-8.1129c-.3059-3.8706-2.4939-6.7424-5.8591-8.3404l-4.554-2.5596c-1.2039,3.2639-1.4063,6.7093-.5696,10.0713,1.5325,4.8087,5.9603,8.6502,11.0997,8.9417ZM119.113,85.5281c3.0689-.2769,5.562-1.3168,7.5835-3.3391,4.5373-3.793,5.4658-10.3108,3.2141-15.7614l-4.8221,2.6039c-1.9536,1.0549-3.6047,2.3261-4.6093,4.3495-1.2072,2.2962-1.3083,4.845-1.3287,7.4229l-.0373,4.7241Z"/>
      <path class="cls-1" d="M46.0657,92.486l-.3994-2.6944-2.5675,2.3994c-2.1052,1.9674-5.4104,3.464-7.5839,2.0686-1.965-1.2615-2.0855-4.6934-1.215-6.9357.8291-2.1358,2.2076-3.8063,3.6911-5.4793,3.137-3.5377,8.476-6.518,11.7183-2.7489l1.2178-1.8121c.2185-.3252,1.1957-.4458,1.5423-.2642,2.6279,1.3768-3.1482,6.0875-4.3671,12.9941-.0467.2646.1333.924.3326,1.0718.9165.6798,3.5642-1.3919,4.8715-2.8837,1.5737-1.7957,3.0426-3.6734,4.2459-5.7608,1.7195-2.9827,1.8208-6.0251,3.4755-6.3303.4156-.0767,1.1402.3216,1.3236.7152.2548.5468.0476,1.213-.1884,1.9625,2.1346-2.3745,5.4194-4.3899,7.695-2.3309.6636.6005.909,1.6042.9919,2.6601l1.1878-1.1861c2.1987-2.1957,5.4262-4.1771,7.8531-2.4119,1.2231.8897.8564,3.6068.0371,5.5049l-2.7514,6.374c-.114.2642-.0366.8783.1523,1.005,1.0595.7107,4.3328-2.6692,5.6444-4.5653,2.7347-3.9532,5.061-7.9835,7.4631-12.1548.2586-.4491,1.256-.3847,1.6285-.1702,1.8636,1.073-.3385,3.7288.3066,5.4495l1.3673,3.6468c.7102,1.8941,1.1236,3.7549.6789,5.7136-.6066,2.6718-2.8305,4.1311-5.5138,4.0219-1.5919-.0648-3.1264-.5179-3.5298-2.3243-.1476-.661.1645-1.53.8367-1.6902.6807-.1622,1.1641.2003,1.7537.791,1.1005,1.1024,3.5607.4046,4.0745-1.0995s-.0287-3.032-.672-4.3285l-1.5248-3.0732c-2.1719,3.5876-4.3285,7.0031-7.3334,9.7432-2.3109,2.1073-6.0356,4.1382-7.7821,2.1934-1.6158-1.7992.2108-5.3096,1.3756-7.9486l1.8151-4.112c.0649-.147-.0479-.5857-.1728-.6067l-.8285-.1396c-1.9137.7799-3.4838,1.9404-4.8467,3.5056-2.5374,2.8725-4.3276,6.1539-5.7282,9.7413-.2958.7576-.7686,1.1264-1.5296.9787-.6605-.1282-1.3207-.959-.9802-1.7415l1.6551-3.8045c1.0394-2.3892,2.3694-4.6689,2.7294-7.3516-.3512-.7109-1.6964-.5927-2.3214-.0736-4.7734,3.9644-6.8928,6.4299-9.064,12.5135-.2701.7567-.9018,1.4045-1.7348,1.555-.4213.0761-1.2849-.481-1.2248-.8511l.265-1.6319c-2.4776,3.11-7.6471,4.7516-8.0703,1.8964ZM41.9222,89.8013c2.155-2.3655,3.8842-4.7718,5.5865-7.4061.2321-.3592.2175-1.3128-.0017-1.6475-.5382-.822-2.087-.9049-3.2763-.2855-6.6972,3.4882-9.4028,11.3237-6.9101,11.5619,1.7887.1709,3.3593-.8592,4.6015-2.2228Z"/>
    </g>
  </g>
</svg>